<?xml version="1.0" standalone="no"?>
<!DOCTYPE svg PUBLIC "-//W3C//DTD SVG 20010904//EN"
 "http://www.w3.org/TR/2001/REC-SVG-20010904/DTD/svg10.dtd">
<svg version="1.0" xmlns="http://www.w3.org/2000/svg"
 width="100.000000pt" height="100.000000pt" viewBox="0 0 100.000000 100.000000"
 preserveAspectRatio="xMidYMid meet">
<metadata>
Created by potrace 1.15, written by Peter Selinger 2001-2017
</metadata>
<g transform="translate(0.000000,100.000000) scale(0.100000,-0.100000)"
fill="#000000" stroke="none">
<path d="M360 838 c-77 -30 -169 -123 -198 -201 -30 -79 -30 -195 0 -274 29
-80 121 -172 201 -201 79 -30 195 -30 274 0 80 29 172 121 201 201 30 79 30
195 0 274 -29 80 -121 172 -201 201 -78 30 -200 29 -277 0z m283 -37 c61 -29
128 -97 159 -158 19 -40 23 -64 23 -143 0 -80 -4 -103 -24 -143 -42 -86 -135
-161 -223 -182 l-28 -7 0 116 0 116 44 0 c51 0 53 2 62 58 l7 42 -58 0 -58 0
6 45 c2 26 7 48 10 51 3 3 24 8 46 11 l41 6 0 47 c0 54 -7 60 -76 60 -96 0
-134 -42 -134 -147 l0 -73 -45 0 -45 0 0 -50 0 -50 45 0 45 0 0 -116 c0 -115
0 -115 -22 -108 -95 29 -179 99 -219 181 -28 57 -37 174 -19 237 26 91 106
177 204 218 61 26 195 21 259 -11z m-15 -143 c3 -37 3 -37 -40 -40 l-43 -3 -3
-62 -3 -63 52 0 c48 0 51 -1 45 -22 -3 -13 -6 -31 -6 -40 0 -15 -9 -18 -45
-18 l-45 0 0 -120 0 -120 -45 0 -45 0 0 120 0 120 -45 0 -45 0 0 40 0 40 44 0
43 0 7 71 c9 105 43 141 126 136 44 -2 45 -3 48 -39z"/>
</g>
</svg>
