<?xml version="1.0" standalone="no"?>
<!DOCTYPE svg PUBLIC "-//W3C//DTD SVG 20010904//EN"
 "http://www.w3.org/TR/2001/REC-SVG-20010904/DTD/svg10.dtd">
<svg version="1.0" xmlns="http://www.w3.org/2000/svg"
 width="64.000000pt" height="64.000000pt" viewBox="0 0 64.000000 64.000000"
 preserveAspectRatio="xMidYMid meet">
<metadata>
Created by potrace 1.15, written by Peter Selinger 2001-2017
</metadata>
<g transform="translate(0.000000,64.000000) scale(0.100000,-0.100000)"
fill="#000000" stroke="none">
<path d="M340 395 c-18 -22 3 -43 48 -47 32 -3 37 -6 37 -28 0 -24 -3 -25 -74
-30 -56 -4 -77 -9 -85 -22 -15 -24 3 -52 37 -56 48 -6 64 -62 17 -62 -25 0
-37 -25 -20 -45 7 -8 15 -15 19 -15 7 0 134 104 220 179 39 34 44 45 49 90 l5
51 -121 0 c-94 0 -122 -3 -132 -15z"/>
</g>
</svg>
