<?xml version="1.0" standalone="no"?>
<!DOCTYPE svg PUBLIC "-//W3C//DTD SVG 20010904//EN"
 "http://www.w3.org/TR/2001/REC-SVG-20010904/DTD/svg10.dtd">
<svg version="1.0" xmlns="http://www.w3.org/2000/svg"
 width="26.000000pt" height="26.000000pt" viewBox="0 0 26.000000 26.000000"
 preserveAspectRatio="xMidYMid meet">
<metadata>
Created by potrace 1.15, written by Peter Selinger 2001-2017
</metadata>
<g transform="translate(0.000000,26.000000) scale(0.100000,-0.100000)"
fill="#000000" stroke="none">
<path d="M50 205 c0 -24 -5 -35 -15 -35 -11 0 -15 -11 -15 -40 0 -22 5 -40 10
-40 6 0 10 5 10 10 0 6 37 10 90 10 53 0 90 -4 90 -10 0 -5 5 -10 10 -10 6 0
10 18 10 40 0 29 -4 40 -15 40 -10 0 -15 11 -15 35 l0 35 -80 0 -80 0 0 -35z"/>
</g>
</svg>
